<svg width="800" height="800" viewBox="0 0 24 24" fill="none" xmlns="http://www.w3.org/2000/svg"><path d="m2 3 .26.09c1.32.44 1.98.66 2.36 1.18C5 4.8 5 5.5 5 6.88V9.5c0 2.83 0 4.24.88 5.12.88.88 2.3.88 5.12.88h8" stroke="#1C274C" stroke-width="1.5" stroke-linecap="round"/><path d="M7.5 18a1.5 1.5 0 1 1 0 3 1.5 1.5 0 0 1 0-3ZM16.5 18a1.5 1.5 0 1 1 0 3 1.5 1.5 0 0 1 0-3ZM5 6h11.45c2.06 0 3.08 0 3.53.67.44.68.04 1.62-.77 3.51l-.43 1c-.38.88-.57 1.32-.94 1.57-.38.25-.86.25-1.82.25H5" stroke="#1C274C" stroke-width="1.5"/></svg>